<mxfile host="app.diagrams.net" modified="2023-07-25T02:41:50.235Z" agent="Mozilla/5.0 (Macintosh; Intel Mac OS X 10_15_7) AppleWebKit/537.36 (KHTML, like Gecko) Chrome/114.0.0.0 Safari/537.36" etag="mBteKhTVUYx61c2_x9lp" version="21.6.5" type="github">
  <diagram id="C5RBs43oDa-KdzZeNtuy" name="Page-1">
    <mxGraphModel dx="954" dy="625" grid="0" gridSize="10" guides="1" tooltips="1" connect="1" arrows="1" fold="1" page="1" pageScale="1" pageWidth="827" pageHeight="1169" math="0" shadow="0">
      <root>
        <mxCell id="WIyWlLk6GJQsqaUBKTNV-0" />
        <mxCell id="WIyWlLk6GJQsqaUBKTNV-1" parent="WIyWlLk6GJQsqaUBKTNV-0" />
        <mxCell id="YSfEhZk26maKdWH6nOkZ-2" value="" style="edgeStyle=orthogonalEdgeStyle;rounded=0;orthogonalLoop=1;jettySize=auto;html=1;" edge="1" parent="WIyWlLk6GJQsqaUBKTNV-1" source="YSfEhZk26maKdWH6nOkZ-0" target="YSfEhZk26maKdWH6nOkZ-1">
          <mxGeometry relative="1" as="geometry" />
        </mxCell>
        <mxCell id="YSfEhZk26maKdWH6nOkZ-0" value="&lt;font style=&quot;font-size: 12px;&quot;&gt;crm端选择需要发送的用户&lt;/font&gt;" style="rounded=0;whiteSpace=wrap;html=1;strokeColor=#000000;" vertex="1" parent="WIyWlLk6GJQsqaUBKTNV-1">
          <mxGeometry x="30" y="40" width="120" height="60" as="geometry" />
        </mxCell>
        <mxCell id="YSfEhZk26maKdWH6nOkZ-4" value="" style="edgeStyle=orthogonalEdgeStyle;rounded=0;orthogonalLoop=1;jettySize=auto;html=1;" edge="1" parent="WIyWlLk6GJQsqaUBKTNV-1" source="YSfEhZk26maKdWH6nOkZ-1" target="YSfEhZk26maKdWH6nOkZ-3">
          <mxGeometry relative="1" as="geometry" />
        </mxCell>
        <mxCell id="YSfEhZk26maKdWH6nOkZ-1" value="点击保存" style="rounded=0;whiteSpace=wrap;html=1;strokeColor=#000000;" vertex="1" parent="WIyWlLk6GJQsqaUBKTNV-1">
          <mxGeometry x="230" y="40" width="120" height="60" as="geometry" />
        </mxCell>
        <mxCell id="YSfEhZk26maKdWH6nOkZ-6" value="" style="edgeStyle=orthogonalEdgeStyle;rounded=0;orthogonalLoop=1;jettySize=auto;html=1;" edge="1" parent="WIyWlLk6GJQsqaUBKTNV-1" source="YSfEhZk26maKdWH6nOkZ-3" target="YSfEhZk26maKdWH6nOkZ-5">
          <mxGeometry relative="1" as="geometry" />
        </mxCell>
        <mxCell id="YSfEhZk26maKdWH6nOkZ-3" value="调用接口保存目前选择的用户数据以及未选取的用户数据，并返回token" style="rounded=0;whiteSpace=wrap;html=1;strokeColor=#000000;" vertex="1" parent="WIyWlLk6GJQsqaUBKTNV-1">
          <mxGeometry x="430" y="40" width="120" height="60" as="geometry" />
        </mxCell>
        <mxCell id="YSfEhZk26maKdWH6nOkZ-8" value="" style="edgeStyle=orthogonalEdgeStyle;rounded=0;orthogonalLoop=1;jettySize=auto;html=1;" edge="1" parent="WIyWlLk6GJQsqaUBKTNV-1" source="YSfEhZk26maKdWH6nOkZ-5" target="YSfEhZk26maKdWH6nOkZ-7">
          <mxGeometry relative="1" as="geometry" />
        </mxCell>
        <mxCell id="YSfEhZk26maKdWH6nOkZ-5" value="携带token并跳转到微信助手" style="rounded=0;whiteSpace=wrap;html=1;strokeColor=#000000;" vertex="1" parent="WIyWlLk6GJQsqaUBKTNV-1">
          <mxGeometry x="630" y="40" width="120" height="60" as="geometry" />
        </mxCell>
        <mxCell id="YSfEhZk26maKdWH6nOkZ-10" value="" style="edgeStyle=orthogonalEdgeStyle;rounded=0;orthogonalLoop=1;jettySize=auto;html=1;" edge="1" parent="WIyWlLk6GJQsqaUBKTNV-1" source="YSfEhZk26maKdWH6nOkZ-7" target="YSfEhZk26maKdWH6nOkZ-9">
          <mxGeometry relative="1" as="geometry" />
        </mxCell>
        <mxCell id="YSfEhZk26maKdWH6nOkZ-7" value="微信助手使用token获取网页的选取的用户数据" style="rounded=0;whiteSpace=wrap;html=1;strokeColor=#000000;" vertex="1" parent="WIyWlLk6GJQsqaUBKTNV-1">
          <mxGeometry x="630" y="180" width="120" height="60" as="geometry" />
        </mxCell>
        <mxCell id="YSfEhZk26maKdWH6nOkZ-12" value="" style="edgeStyle=orthogonalEdgeStyle;rounded=0;orthogonalLoop=1;jettySize=auto;html=1;" edge="1" parent="WIyWlLk6GJQsqaUBKTNV-1" source="YSfEhZk26maKdWH6nOkZ-9" target="YSfEhZk26maKdWH6nOkZ-11">
          <mxGeometry relative="1" as="geometry" />
        </mxCell>
        <mxCell id="YSfEhZk26maKdWH6nOkZ-9" value="在微信助手调用/batchInsertAll接口进行发送" style="rounded=0;whiteSpace=wrap;html=1;strokeColor=#000000;" vertex="1" parent="WIyWlLk6GJQsqaUBKTNV-1">
          <mxGeometry x="430" y="180" width="120" height="60" as="geometry" />
        </mxCell>
        <mxCell id="YSfEhZk26maKdWH6nOkZ-14" value="" style="edgeStyle=orthogonalEdgeStyle;rounded=0;orthogonalLoop=1;jettySize=auto;html=1;" edge="1" parent="WIyWlLk6GJQsqaUBKTNV-1" source="YSfEhZk26maKdWH6nOkZ-11" target="YSfEhZk26maKdWH6nOkZ-13">
          <mxGeometry relative="1" as="geometry" />
        </mxCell>
        <mxCell id="YSfEhZk26maKdWH6nOkZ-11" value="微信助手针对发送用户wxId进行分组，构造原先接口需要的数据" style="rounded=0;whiteSpace=wrap;html=1;strokeColor=#000000;" vertex="1" parent="WIyWlLk6GJQsqaUBKTNV-1">
          <mxGeometry x="230" y="180" width="120" height="60" as="geometry" />
        </mxCell>
        <mxCell id="YSfEhZk26maKdWH6nOkZ-13" value="for循环调用原先的/insert/all接口" style="rounded=0;whiteSpace=wrap;html=1;strokeColor=#000000;" vertex="1" parent="WIyWlLk6GJQsqaUBKTNV-1">
          <mxGeometry x="30" y="180" width="120" height="60" as="geometry" />
        </mxCell>
      </root>
    </mxGraphModel>
  </diagram>
</mxfile>
